<?xml version="1.0" encoding="utf-8" ?>
<svg xmlns="http://www.w3.org/2000/svg" xmlns:xlink="http://www.w3.org/1999/xlink" width="1024" height="1024">
	<path fill="none" d="M0 0L1024 0L1024 1024L0 1024L0 0Z"/>
	<path d="M713.935 372.018C739.925 371.602 765.684 374.68 790.467 382.718Q798.426 400.505 803.8 419.237C822.746 484.299 813.149 555.545 780.662 614.681Q779.417 616.91 778.129 619.115Q776.84 621.319 775.509 623.497Q774.177 625.676 772.803 627.828Q771.429 629.98 770.012 632.104Q768.596 634.229 767.138 636.325Q765.68 638.421 764.181 640.487Q762.682 642.554 761.142 644.591Q759.603 646.628 758.023 648.634Q756.444 650.641 754.825 652.615Q753.207 654.59 751.55 656.532Q749.892 658.475 748.197 660.384Q746.502 662.294 744.77 664.169Q743.037 666.045 741.268 667.886Q739.499 669.727 737.694 671.533Q735.889 673.339 734.049 675.109Q732.209 676.878 730.334 678.612Q728.459 680.345 726.551 682.041Q724.642 683.737 722.701 685.395Q720.759 687.053 718.785 688.673Q716.811 690.292 714.806 691.873Q712.8 693.453 710.764 694.993Q708.728 696.534 706.662 698.034Q704.596 699.534 702.5 700.993Q700.405 702.452 698.281 703.87Q696.158 705.287 694.006 706.662Q691.855 708.038 689.677 709.37Q687.499 710.703 685.296 711.992Q683.092 713.282 680.863 714.528Q678.635 715.773 676.382 716.975Q674.129 718.177 671.853 719.334Q669.577 720.491 667.278 721.603Q664.98 722.715 662.66 723.781C648.729 730.176 634.506 734.99 619.805 739.272C588.289 746.483 559.314 748.231 527.171 745.188C537.898 743.198 548.53 739.313 558.638 735.264C590.666 722.434 619.847 704.498 644.273 679.978Q646.103 678.114 647.892 676.21Q649.682 674.307 651.43 672.365Q653.178 670.424 654.884 668.446Q656.59 666.467 658.253 664.453Q659.916 662.438 661.535 660.388Q663.155 658.338 664.73 656.254Q666.305 654.17 667.835 652.052Q669.365 649.935 670.849 647.785Q672.333 645.635 673.771 643.454Q675.208 641.273 676.599 639.061Q677.989 636.849 679.332 634.608Q680.674 632.367 681.969 630.098Q683.263 627.829 684.508 625.532Q685.753 623.236 686.949 620.913Q688.144 618.59 689.29 616.242Q690.435 613.894 691.53 611.522Q692.625 609.15 693.668 606.755Q694.712 604.361 695.703 601.944Q696.695 599.527 697.635 597.09Q698.575 594.652 699.462 592.195Q700.349 589.738 701.183 587.262Q702.018 584.786 702.798 582.294Q703.579 579.801 704.306 577.291Q705.033 574.782 705.707 572.258Q706.38 569.734 706.998 567.196Q707.617 564.658 708.181 562.107Q708.745 559.556 709.254 556.994Q709.764 554.432 710.218 551.859Q710.672 549.286 711.07 546.705Q711.469 544.123 711.812 541.533Q712.155 538.943 712.443 536.347Q712.73 533.75 712.962 531.148C715.071 508.474 714.179 485.844 714.071 463.128L713.935 372.018Z"/>
	<path d="M299.592 371.711C303.075 371.385 306.626 371.578 310.121 371.644C310.584 388.085 310.148 404.467 310.085 420.903L310.187 476.975C310.1 495.673 309.43 514.485 310.842 533.146Q311.161 537.053 311.613 540.946Q312.066 544.839 312.65 548.715Q313.235 552.591 313.951 556.444Q314.668 560.298 315.515 564.125Q316.363 567.952 317.34 571.747Q318.317 575.543 319.424 579.303Q320.53 583.064 321.763 586.784Q322.997 590.504 324.357 594.18Q325.717 597.857 327.201 601.484Q328.685 605.112 330.292 608.687Q331.9 612.262 333.628 615.78Q335.356 619.298 337.203 622.755Q339.05 626.212 341.013 629.604Q342.977 632.997 345.055 636.32Q347.134 639.643 349.324 642.894Q351.514 646.144 353.814 649.318C387.012 695.61 439.245 735.765 496.465 745.208C467.668 747.314 441.202 746.055 412.744 740.792C392.896 735.744 373.867 729.606 355.442 720.558Q352.587 719.18 349.768 717.732Q346.948 716.283 344.166 714.766Q341.383 713.248 338.639 711.661Q335.895 710.075 333.191 708.421Q330.487 706.767 327.825 705.046Q325.163 703.325 322.544 701.539Q319.926 699.753 317.352 697.903Q314.779 696.052 312.252 694.138Q309.725 692.224 307.247 690.248Q304.769 688.272 302.34 686.235Q299.911 684.199 297.534 682.102Q295.157 680.006 292.832 677.851Q290.507 675.696 288.237 673.484Q285.967 671.272 283.752 669.005Q281.537 666.737 279.379 664.415Q277.221 662.094 275.122 659.719Q273.022 657.344 270.982 654.918Q268.942 652.492 266.963 650.016Q264.984 647.541 263.067 645.016Q261.149 642.492 259.295 639.921Q257.442 637.35 255.652 634.734Q253.862 632.118 252.138 629.458Q250.414 626.798 248.757 624.096Q247.099 621.394 245.509 618.652Q243.919 615.91 242.398 613.13Q240.876 610.349 239.424 607.531Q237.972 604.714 236.591 601.861Q235.209 599.008 233.899 596.122Q232.588 593.236 231.35 590.318Q230.111 587.4 228.946 584.453Q227.78 581.505 226.688 578.529Q225.596 575.554 224.578 572.552Q223.763 570.193 222.994 567.818Q222.225 565.443 221.504 563.053Q220.783 560.663 220.109 558.259Q219.435 555.856 218.809 553.439Q218.183 551.023 217.605 548.594Q217.027 546.166 216.498 543.726Q215.968 541.287 215.487 538.837Q215.005 536.388 214.573 533.929Q214.14 531.471 213.756 529.004Q213.373 526.537 213.038 524.064Q212.703 521.59 212.417 519.11Q212.132 516.63 211.895 514.145Q211.659 511.66 211.472 509.171Q211.284 506.682 211.147 504.189Q211.009 501.697 210.92 499.202Q210.832 496.707 210.793 494.211Q210.754 491.715 210.765 489.219Q210.776 486.723 210.836 484.227Q210.896 481.731 211.005 479.238Q211.115 476.744 211.274 474.252Q211.433 471.761 211.641 469.274Q211.85 466.786 212.107 464.303Q212.365 461.82 212.672 459.343Q212.978 456.865 213.334 454.394Q213.69 451.924 214.095 449.46Q214.5 446.997 214.953 444.542Q215.407 442.088 215.909 439.642Q216.411 437.197 216.961 434.762Q217.512 432.327 218.11 429.904Q218.709 427.48 219.355 425.069Q220.002 422.658 220.696 420.26Q221.39 417.863 222.132 415.479C225.511 404.495 229.314 393.69 234.393 383.367C255.519 376.261 277.473 373.418 299.592 371.711Z"/>
	<path d="M625.782 386.458C626.44 386.452 626.827 386.742 627.404 387.032C631.387 392.286 633.7 399.986 636.078 406.133Q637.427 409.678 638.672 413.262Q639.916 416.845 641.056 420.464Q642.195 424.082 643.227 427.732Q644.26 431.382 645.185 435.061Q646.11 438.74 646.927 442.445Q647.744 446.149 648.452 449.876Q649.16 453.603 649.758 457.349Q650.357 461.095 650.845 464.856Q651.334 468.618 651.712 472.393Q652.089 476.167 652.357 479.951Q652.624 483.735 652.78 487.526Q652.936 491.316 652.981 495.109Q653.026 498.902 652.96 502.695Q652.893 506.488 652.716 510.277Q652.539 514.067 652.25 517.849Q651.962 521.632 651.563 525.404Q651.266 528.232 650.909 531.053Q650.553 533.874 650.138 536.687Q649.723 539.5 649.249 542.304Q648.776 545.108 648.244 547.901Q647.713 550.695 647.123 553.477Q646.534 556.258 645.886 559.027Q645.239 561.796 644.534 564.551Q643.829 567.306 643.067 570.045Q642.305 572.785 641.487 575.508Q640.668 578.231 639.793 580.936Q638.918 583.642 637.986 586.328Q637.055 589.015 636.068 591.682Q635.081 594.349 634.039 596.994Q632.996 599.64 631.899 602.263Q630.802 604.887 629.651 607.487Q628.5 610.087 627.294 612.662Q626.089 615.238 624.831 617.787Q623.572 620.337 622.261 622.86Q620.949 625.384 619.586 627.879Q618.222 630.374 616.807 632.84Q615.392 635.307 613.926 637.743Q612.46 640.18 610.943 642.585Q609.427 644.99 607.861 647.364Q606.295 649.737 604.68 652.077Q603.064 654.418 601.401 656.724Q599.737 659.03 598.026 661.301Q596.315 663.572 594.557 665.807Q592.799 668.042 590.995 670.24Q589.191 672.438 587.341 674.598Q585.492 676.758 583.598 678.878Q581.704 681 579.766 683.081Q577.829 685.162 575.848 687.202C566.435 696.929 556.241 705.58 545.752 714.113C549.295 707.529 552.739 700.955 555.851 694.154C568.151 669.063 576.407 640.892 578.522 612.987C583.217 551.028 563.249 497.553 523.168 450.797C552.447 418.961 585.831 401.497 625.782 386.458Z"/>
	<path d="M397.144 385.704C435.426 397.376 472.968 421.275 499.965 450.752C482.994 468.208 469.512 490.962 460.84 513.698Q460.011 515.874 459.226 518.067Q458.441 520.259 457.701 522.467Q456.96 524.675 456.265 526.898Q455.569 529.12 454.919 531.356Q454.269 533.592 453.664 535.841Q453.059 538.09 452.499 540.351Q451.94 542.611 451.427 544.883Q450.913 547.154 450.446 549.435Q449.978 551.717 449.557 554.007Q449.136 556.298 448.761 558.596Q448.387 560.894 448.058 563.2Q447.73 565.506 447.449 567.817Q447.167 570.129 446.933 572.446Q446.698 574.763 446.511 577.084Q446.323 579.405 446.183 581.73Q446.042 584.054 445.948 586.381Q445.855 588.708 445.809 591.036Q445.762 593.365 445.763 595.693Q445.764 598.022 445.811 600.35Q445.859 602.679 445.954 605.006Q446.049 607.332 446.191 609.657Q446.333 611.981 446.522 614.302Q446.711 616.623 446.947 618.94Q447.183 621.257 447.466 623.569Q447.749 625.88 448.079 628.185Q448.408 630.491 448.784 632.789Q449.16 635.087 449.583 637.377Q450.006 639.667 450.474 641.949Q450.943 644.23 451.458 646.501Q451.973 648.772 452.534 651.032Q453.094 653.292 453.701 655.541Q454.307 657.789 454.959 660.025C458.273 671.191 462.7 681.928 467.448 692.55Q471.923 702.824 477.403 712.599C467.043 706.161 458.482 697.509 450.108 688.736C420.433 657.645 398.048 621.325 385.085 580.244C370.926 535.371 369.016 489.505 378.007 443.361C381.925 423.252 387.666 403.926 397.144 385.704Z"/>
	<path d="M510.916 265.413C511.83 265.392 512.564 265.61 513.423 265.902C519.412 267.94 524.792 272.367 530.156 275.707C566.772 298.509 598.303 332.031 617.884 370.535C575.872 385.695 544.606 405.556 512.839 436.86C510.078 437.521 506.301 432.574 504.481 430.742C476.384 402.447 442.368 385.739 406.232 369.959C434.557 321.316 462.765 294.194 510.916 265.413Z"/>
	<path d="M310.737 267.671C353.352 264.981 399.207 277.835 434.944 300.999Q419.221 317.26 405.354 335.13C398.73 344.504 392.742 354.003 386.944 363.91C361.343 357.375 336.589 355.167 310.181 355.176L310.096 305.712C310.076 293.03 309.733 280.325 310.737 267.671Z"/>
	<path d="M695.957 266.712C701.92 266.353 707.901 266.469 713.872 266.493Q714.599 310 713.568 353.501Q704.013 353.373 694.474 353.934Q684.934 354.495 675.46 355.742Q665.986 356.988 656.626 358.914Q647.266 360.839 638.069 363.434C633.66 357.415 629.8 351.02 625.857 344.692C614.617 328.696 601.691 315.088 588.501 300.757C620.525 279.931 658.269 270.188 695.957 266.712Z"/>
</svg>
